<svg width="15" height="15" viewBox="0 0 15 15" fill="none" xmlns="http://www.w3.org/2000/svg">
<path fill-rule="evenodd" clip-rule="evenodd" d="M2.95437 10.6834C0.822965 8.55339 0.822965 5.08726 2.95437 2.95721C3.98666 1.92431 5.35819 1.35647 6.81796 1.35647C8.27773 1.35647 9.65012 1.92431 10.6824 2.95721C12.8129 5.08726 12.8129 8.55339 10.6824 10.6834C8.55186 12.8135 5.08491 12.8135 2.95437 10.6834ZM11.5751 10.9704C13.7424 8.49087 13.6508 4.71298 11.2881 2.35083C10.0939 1.15691 8.50646 0.5 6.81796 0.5C5.12946 0.5 3.54204 1.15691 2.34784 2.35083C-0.115947 4.8149 -0.115947 8.82489 2.34784 11.289C3.58059 12.5214 5.1997 13.1372 6.81796 13.1372C8.30257 13.1372 9.78376 12.6122 10.9694 11.5759L13.7684 14.3741C13.8524 14.458 13.962 14.5 14.0717 14.5C14.1813 14.5 14.291 14.458 14.3741 14.3741C14.542 14.2071 14.542 13.9364 14.3741 13.7686L11.5751 10.9704Z" fill="#0977BE"/>
<path d="M2.95437 10.6834L3.18533 10.4524L3.18528 10.4524L2.95437 10.6834ZM2.95437 2.95721L3.18528 3.18828L3.18542 3.18813L2.95437 2.95721ZM10.6824 2.95721L10.4513 3.18813L10.4514 3.18823L10.6824 2.95721ZM11.5751 10.9704L11.3291 10.7554L11.128 10.9854L11.3441 11.2014L11.5751 10.9704ZM11.2881 2.35083L11.0571 2.58185L11.2881 2.35083ZM2.34784 2.35083L2.11688 2.11982L2.11684 2.11986L2.34784 2.35083ZM2.34784 11.289L2.11684 11.5199L2.11688 11.52L2.34784 11.289ZM10.9694 11.5759L11.2003 11.3449L10.9844 11.1289L10.7544 11.3299L10.9694 11.5759ZM13.7684 14.3741L13.9994 14.1431L13.9994 14.1431L13.7684 14.3741ZM14.3741 14.3741L14.1437 14.1425L14.1419 14.1443L14.3741 14.3741ZM14.3741 13.7686L14.605 13.5376L14.605 13.5376L14.3741 13.7686ZM3.18528 10.4524C1.18155 8.44992 1.18155 5.19073 3.18528 3.18828L2.72345 2.72615C0.464381 4.98378 0.464381 8.65687 2.72345 10.9145L3.18528 10.4524ZM3.18542 3.18813C4.1564 2.21658 5.4448 1.68314 6.81796 1.68314V1.0298C5.27158 1.0298 3.81691 1.63204 2.72331 2.72629L3.18542 3.18813ZM6.81796 1.68314C8.19117 1.68314 9.48041 2.21662 10.4513 3.18813L10.9135 2.72629C9.81982 1.63201 8.36428 1.0298 6.81796 1.0298V1.68314ZM10.4514 3.18823C12.4544 5.19069 12.4544 8.44995 10.4514 10.4524L10.9134 10.9145C13.1715 8.65683 13.1715 4.98382 10.9134 2.7262L10.4514 3.18823ZM10.4514 10.4524C8.44847 12.4549 5.18831 12.4549 3.18533 10.4524L2.7234 10.9145C4.98151 13.172 8.65526 13.172 10.9134 10.9145L10.4514 10.4524ZM11.821 11.1853C14.1003 8.57779 14.0046 4.60481 11.519 2.11982L11.0571 2.58185C13.2969 4.82115 13.3845 8.40395 11.3291 10.7554L11.821 11.1853ZM11.519 2.11982C10.2635 0.864608 8.59302 0.173333 6.81796 0.173333V0.826667C8.4199 0.826667 9.92421 1.44922 11.0571 2.58185L11.519 2.11982ZM6.81796 0.173333C5.0429 0.173333 3.37239 0.864608 2.11688 2.11982L2.5788 2.58185C3.7117 1.44922 5.21602 0.826667 6.81796 0.826667V0.173333ZM2.11684 2.11986C-0.474503 4.71149 -0.474503 8.9283 2.11684 11.5199L2.57884 11.058C0.242608 8.72149 0.242608 4.91831 2.57884 2.58181L2.11684 2.11986ZM2.11688 11.52C3.41357 12.8164 5.11695 13.4639 6.81796 13.4639V12.8106C5.28246 12.8106 3.74761 12.2265 2.5788 11.0579L2.11688 11.52ZM6.81796 13.4639C8.37957 13.4639 9.93767 12.9115 11.1844 11.8218L10.7544 11.3299C9.62984 12.3129 8.22557 12.8106 6.81796 12.8106V13.4639ZM10.7384 11.8069L13.5374 14.6051L13.9994 14.1431L11.2003 11.3449L10.7384 11.8069ZM13.5374 14.6051C13.6848 14.7524 13.8785 14.8267 14.0717 14.8267V14.1733C14.0455 14.1733 14.0199 14.1636 13.9994 14.1431L13.5374 14.6051ZM14.0717 14.8267C14.2645 14.8267 14.459 14.7526 14.6062 14.6039L14.1419 14.1443C14.1229 14.1635 14.0981 14.1733 14.0717 14.1733V14.8267ZM14.6044 14.6057C14.9011 14.3107 14.9002 13.8327 14.605 13.5376L14.1431 13.9996C14.1837 14.0402 14.1829 14.1035 14.1437 14.1425L14.6044 14.6057ZM14.605 13.5376L11.806 10.7393L11.3441 11.2014L14.1431 13.9996L14.605 13.5376Z" fill="#0977BE"/>
</svg>
